<mxfile host="app.diagrams.net" modified="2020-09-24T13:24:10.630Z" agent="5.0 (Windows)" etag="7X4s_CaoanUc_hEo-gFX" version="13.7.5" type="github">
  <diagram id="oInA9YpVJKGzTpnUIwjt" name="Page-1">
    <mxGraphModel dx="2272" dy="791" grid="1" gridSize="10" guides="1" tooltips="1" connect="1" arrows="1" fold="1" page="1" pageScale="1" pageWidth="850" pageHeight="1100" math="0" shadow="0">
      <root>
        <mxCell id="0" />
        <mxCell id="1" parent="0" />
        <mxCell id="J2-bpZsxf6MJ3AO0Zzre-2" value="w2" style="text;html=1;resizable=0;autosize=1;align=center;verticalAlign=middle;points=[];fillColor=none;strokeColor=none;rounded=0;fontColor=#0050A1;fontStyle=1" parent="1" vertex="1">
          <mxGeometry x="216" y="120" width="30" height="20" as="geometry" />
        </mxCell>
        <mxCell id="J2-bpZsxf6MJ3AO0Zzre-5" value="w4" style="text;html=1;resizable=0;autosize=1;align=center;verticalAlign=middle;points=[];fillColor=none;strokeColor=none;rounded=0;fontColor=#0050A1;fontStyle=1" parent="1" vertex="1">
          <mxGeometry x="336" y="120" width="30" height="20" as="geometry" />
        </mxCell>
        <mxCell id="J2-bpZsxf6MJ3AO0Zzre-6" value="w6" style="text;html=1;resizable=0;autosize=1;align=center;verticalAlign=middle;points=[];fillColor=none;strokeColor=none;rounded=0;fontColor=#0050A1;fontStyle=1" parent="1" vertex="1">
          <mxGeometry x="456" y="120" width="30" height="20" as="geometry" />
        </mxCell>
        <mxCell id="J2-bpZsxf6MJ3AO0Zzre-7" value="w8" style="text;html=1;resizable=0;autosize=1;align=center;verticalAlign=middle;points=[];fillColor=none;strokeColor=none;rounded=0;fontColor=#0050A1;fontStyle=1" parent="1" vertex="1">
          <mxGeometry x="576" y="120" width="30" height="20" as="geometry" />
        </mxCell>
        <mxCell id="J2-bpZsxf6MJ3AO0Zzre-8" value="w10" style="text;html=1;resizable=0;autosize=1;align=center;verticalAlign=middle;points=[];fillColor=none;strokeColor=none;rounded=0;fontColor=#0050A1;fontStyle=1" parent="1" vertex="1">
          <mxGeometry x="691" y="120" width="40" height="20" as="geometry" />
        </mxCell>
        <mxCell id="J2-bpZsxf6MJ3AO0Zzre-9" value="w12" style="text;html=1;resizable=0;autosize=1;align=center;verticalAlign=middle;points=[];fillColor=none;strokeColor=none;rounded=0;fontColor=#0050A1;fontStyle=1" parent="1" vertex="1">
          <mxGeometry x="811" y="120" width="40" height="20" as="geometry" />
        </mxCell>
        <mxCell id="J2-bpZsxf6MJ3AO0Zzre-21" value="" style="shape=flexArrow;endArrow=classic;html=1;fontSize=17;fontColor=#0050A1;exitX=0.733;exitY=1.05;exitDx=0;exitDy=0;exitPerimeter=0;labelBackgroundColor=#7EA6E0;strokeColor=#7EA6E0;fillColor=#B6D3FC;" parent="1" source="J2-bpZsxf6MJ3AO0Zzre-29" edge="1">
          <mxGeometry width="50" height="50" relative="1" as="geometry">
            <mxPoint x="14" y="143" as="sourcePoint" />
            <mxPoint x="1070" y="140" as="targetPoint" />
          </mxGeometry>
        </mxCell>
        <mxCell id="J2-bpZsxf6MJ3AO0Zzre-29" value="w0" style="text;html=1;resizable=0;autosize=1;align=center;verticalAlign=middle;points=[];fillColor=none;strokeColor=none;rounded=0;fontColor=#0050A1;fontStyle=1" parent="1" vertex="1">
          <mxGeometry x="96" y="120" width="30" height="20" as="geometry" />
        </mxCell>
        <mxCell id="yDNGOB7GQb5LNbqF-BeX-12" value="Solution Design" style="rounded=1;whiteSpace=wrap;html=1;fontSize=13;fillColor=#fff2cc;strokeColor=#d6b656;fontStyle=0" parent="1" vertex="1">
          <mxGeometry x="-90" y="100" width="130" height="20" as="geometry" />
        </mxCell>
        <mxCell id="yDNGOB7GQb5LNbqF-BeX-18" value="w14" style="text;html=1;resizable=0;autosize=1;align=center;verticalAlign=middle;points=[];fillColor=none;strokeColor=none;rounded=0;fontColor=#0050A1;fontStyle=1" parent="1" vertex="1">
          <mxGeometry x="935" y="120" width="40" height="20" as="geometry" />
        </mxCell>
        <mxCell id="LhsxPXVFfBGYSJX7y7iX-48" value="Configuration" style="rounded=1;whiteSpace=wrap;html=1;fontSize=13;fillColor=#fff2cc;strokeColor=#d6b656;fontStyle=0" vertex="1" parent="1">
          <mxGeometry x="118" y="100" width="184" height="20" as="geometry" />
        </mxCell>
        <mxCell id="LhsxPXVFfBGYSJX7y7iX-49" value="&amp;nbsp;Customer Extension Development" style="rounded=1;whiteSpace=wrap;html=1;fontSize=13;fillColor=#e1d5e7;strokeColor=#9673a6;fontStyle=0" vertex="1" parent="1">
          <mxGeometry x="40" y="20" width="320" height="20" as="geometry" />
        </mxCell>
        <mxCell id="LhsxPXVFfBGYSJX7y7iX-50" value="&amp;nbsp;Customer Extension Test" style="rounded=1;whiteSpace=wrap;html=1;fontSize=13;fillColor=#e1d5e7;strokeColor=#9673a6;fontStyle=0" vertex="1" parent="1">
          <mxGeometry x="480" y="200" width="224" height="20" as="geometry" />
        </mxCell>
        <mxCell id="LhsxPXVFfBGYSJX7y7iX-51" value="Configuration Test Design" style="rounded=1;whiteSpace=wrap;html=1;fontSize=13;fillColor=#d5e8d4;strokeColor=#82b366;fontStyle=0" vertex="1" parent="1">
          <mxGeometry x="118" y="160" width="164" height="20" as="geometry" />
        </mxCell>
        <mxCell id="LhsxPXVFfBGYSJX7y7iX-52" value="Configuration" style="rounded=1;whiteSpace=wrap;html=1;fontSize=13;fillColor=#fff2cc;strokeColor=#d6b656;fontStyle=0" vertex="1" parent="1">
          <mxGeometry x="180" y="410" width="184" height="20" as="geometry" />
        </mxCell>
        <mxCell id="LhsxPXVFfBGYSJX7y7iX-53" value="Configuration Test" style="rounded=1;whiteSpace=wrap;html=1;fontSize=13;fillColor=#fff2cc;strokeColor=#d6b656;fontStyle=0" vertex="1" parent="1">
          <mxGeometry x="230" y="70" width="118" height="20" as="geometry" />
        </mxCell>
        <mxCell id="LhsxPXVFfBGYSJX7y7iX-54" value="Customer Extension&lt;br&gt;Test Design" style="rounded=1;whiteSpace=wrap;html=1;fontSize=13;fillColor=#e1d5e7;strokeColor=#9673a6;fontStyle=0" vertex="1" parent="1">
          <mxGeometry x="118" y="200" width="164" height="40" as="geometry" />
        </mxCell>
      </root>
    </mxGraphModel>
  </diagram>
</mxfile>
